<svg id="Capa_1" data-name="Capa 1" xmlns="http://www.w3.org/2000/svg" xmlns:xlink="http://www.w3.org/1999/xlink" viewBox="0 0 136.44 128.92"><defs><style>.cls-1{fill:url(#Degradado_sin_nombre_69);}.cls-2{fill:url(#Degradado_sin_nombre_69-2);}</style><linearGradient id="Degradado_sin_nombre_69" x1="-1432.34" y1="-161.94" x2="-1389.51" y2="-204.77" gradientTransform="matrix(0.8, 0.59, -0.59, 0.8, 1095.75, 1069.13)" gradientUnits="userSpaceOnUse"><stop offset="0" stop-color="#7fba28"/><stop offset="0.55" stop-color="#009f89"/><stop offset="0.63" stop-color="#00a090"/><stop offset="0.75" stop-color="#00a2a2"/><stop offset="0.88" stop-color="#00a6c1"/><stop offset="1" stop-color="#00aae3"/></linearGradient><linearGradient id="Degradado_sin_nombre_69-2" x1="22.04" y1="101.02" x2="114.45" y2="8.62" gradientTransform="matrix(1, 0, 0, 1, 0, 0)" xlink:href="#Degradado_sin_nombre_69"/></defs><title>icon</title><polygon class="cls-1" points="77.72 72.52 98.88 75.76 83.44 90.59 86.9 111.72 68.03 101.61 49 111.43 52.78 90.36 37.56 75.3 58.77 72.38 68.39 53.25 77.72 72.52"/><path class="cls-2" d="M134.32,28.49h0a3,3,0,0,0-4.24,0L102.42,56.14A44.39,44.39,0,0,0,73.9,40.42L108,6.36a3,3,0,0,0,0-4.24h0a3,3,0,0,0-4.24,0L68.22,37.61,32.73,2.12a3,3,0,0,0-4.24,0h0a3,3,0,0,0,0,4.24L62.54,40.42A44.39,44.39,0,0,0,34,56.14L6.36,28.49a3,3,0,0,0-4.24,0h0a3,3,0,0,0,0,4.24L30.47,61.08A44.18,44.18,0,0,0,23.79,85.5a44.44,44.44,0,0,0,88.87-1A44.17,44.17,0,0,0,106,61.08l28.34-28.35A3,3,0,0,0,134.32,28.49Zm-66.1,94.43a38.44,38.44,0,1,1,38.44-38.44A38.48,38.48,0,0,1,68.22,122.92Z"/></svg>