<svg id="Capa_1" data-name="Capa 1" xmlns="http://www.w3.org/2000/svg" xmlns:xlink="http://www.w3.org/1999/xlink" viewBox="0 0 134.46 111.66"><defs><style>.cls-1{fill:url(#Degradado_sin_nombre_69);}.cls-2{fill:url(#Degradado_sin_nombre_69-2);}.cls-3{fill:url(#Degradado_sin_nombre_69-3);}.cls-4{fill:url(#Degradado_sin_nombre_69-4);}</style><linearGradient id="Degradado_sin_nombre_69" x1="24.87" y1="80.83" x2="109.6" y2="-3.9" gradientUnits="userSpaceOnUse"><stop offset="0" stop-color="#7fba28"/><stop offset="0.55" stop-color="#009f89"/><stop offset="0.63" stop-color="#00a090"/><stop offset="0.75" stop-color="#00a2a2"/><stop offset="0.88" stop-color="#00a6c1"/><stop offset="1" stop-color="#00aae3"/></linearGradient><linearGradient id="Degradado_sin_nombre_69-2" x1="58.64" y1="84.09" x2="81.57" y2="61.16" xlink:href="#Degradado_sin_nombre_69"/><linearGradient id="Degradado_sin_nombre_69-3" x1="49.49" y1="73.21" x2="86.51" y2="36.19" xlink:href="#Degradado_sin_nombre_69"/><linearGradient id="Degradado_sin_nombre_69-4" x1="49.49" y1="55.27" x2="86.51" y2="18.25" xlink:href="#Degradado_sin_nombre_69"/></defs><title>icon</title><path class="cls-1" d="M67.23,111.66a3,3,0,0,1-1.9-.68C53.65,101.44,41.42,91.59,29,81.7l-2.36-1.87C10.47,67,5.59,63.11,2.56,55s-3.4-18.81-.85-28.15c3-11.12,9.88-19.64,19.27-24,14-6.46,32.6-1.66,46.25,11.61C80.89,1.18,99.52-3.61,113.48,2.85c9.39,4.34,16.24,12.86,19.27,24C135.3,36.17,135,46.7,131.9,55S124,67,107.83,79.83l-2.36,1.87C93,91.59,80.82,101.44,69.13,111A3,3,0,0,1,67.23,111.66ZM34.53,6a26.26,26.26,0,0,0-11,2.32C6,16.4,3.31,39.81,8.18,52.88c2.45,6.57,6.63,9.89,22.18,22.25L32.72,77C44.5,86.37,56.1,95.71,67.23,104.79,78.36,95.71,90,86.37,101.74,77l2.36-1.87c15.55-12.36,19.73-15.68,22.18-22.25C131.15,39.81,128.5,16.4,111,8.29c-12.39-5.73-29.47-.58-41.52,12.5a3.09,3.09,0,0,1-4.42,0C56.27,11.29,44.86,6,34.53,6Z"/><path class="cls-2" d="M87.88,69H52.33a3.65,3.65,0,0,0,0,7.3H87.88a3.65,3.65,0,1,0,0-7.3Z"/><path class="cls-3" d="M99.87,51.05H36.14a3.65,3.65,0,1,0,0,7.29H99.87a3.65,3.65,0,0,0,0-7.29Z"/><path class="cls-4" d="M99.87,33.11H36.14a3.65,3.65,0,1,0,0,7.3H99.87a3.65,3.65,0,0,0,0-7.3Z"/></svg>