<svg id="Capa_1" data-name="Capa 1" xmlns="http://www.w3.org/2000/svg" xmlns:xlink="http://www.w3.org/1999/xlink" viewBox="0 0 150.24 149.72"><defs><style>.cls-1{fill:url(#Degradado_sin_nombre_69);}.cls-2{fill:url(#Degradado_sin_nombre_69-2);}.cls-3{fill:url(#Degradado_sin_nombre_69-3);}.cls-4{fill:url(#Degradado_sin_nombre_69-4);}</style><linearGradient id="Degradado_sin_nombre_69" x1="20.8" y1="133.62" x2="149.55" y2="4.87" gradientUnits="userSpaceOnUse"><stop offset="0" stop-color="#7fba28"/><stop offset="0.55" stop-color="#009f89"/><stop offset="0.63" stop-color="#00a090"/><stop offset="0.75" stop-color="#00a2a2"/><stop offset="0.88" stop-color="#00a6c1"/><stop offset="1" stop-color="#00aae3"/></linearGradient><linearGradient id="Degradado_sin_nombre_69-2" x1="97.85" y1="135.81" x2="120.78" y2="112.88" xlink:href="#Degradado_sin_nombre_69"/><linearGradient id="Degradado_sin_nombre_69-3" x1="76.72" y1="124.93" x2="113.74" y2="87.91" xlink:href="#Degradado_sin_nombre_69"/><linearGradient id="Degradado_sin_nombre_69-4" x1="76.72" y1="106.99" x2="113.74" y2="69.97" xlink:href="#Degradado_sin_nombre_69"/></defs><title>icon</title><path class="cls-1" d="M140.75,0H40.82a9.49,9.49,0,0,0-9.48,9.48V44.69c-.61-.36-1.17-.71-1.7-1a62.12,62.12,0,0,1-23.8-29A3.12,3.12,0,0,0,2,12.83a3,3,0,0,0-1.81,4A68.17,68.17,0,0,0,26.4,48.69c1.4.9,3.06,1.88,4.94,2.87v88.68a9.49,9.49,0,0,0,9.48,9.48h99.93a9.5,9.5,0,0,0,9.49-9.48V9.48A9.5,9.5,0,0,0,140.75,0Zm3.33,140.24a3.33,3.33,0,0,1-3.33,3.32H40.82a3.32,3.32,0,0,1-3.32-3.32V54.4a62.69,62.69,0,0,0,11,3.31,60.32,60.32,0,0,0,11.81,1.15A64.87,64.87,0,0,0,67,58.5a26.84,26.84,0,1,0-3.07-12.44,26.58,26.58,0,0,0,.84,6.65,54.93,54.93,0,0,1-15-.89A57,57,0,0,1,37.5,47.88V9.48a3.32,3.32,0,0,1,3.32-3.32h99.93a3.33,3.33,0,0,1,3.33,3.32ZM97.84,41.72l-15.55-.45a2.25,2.25,0,0,0-2,3.31l2.22,4.12a66.22,66.22,0,0,1-11.68,3.24,20.87,20.87,0,1,1,2.59,5.58,73.84,73.84,0,0,0,12-3.5l2.29,4.25a2.24,2.24,0,0,0,3.89.11l8.17-13.23A2.25,2.25,0,0,0,97.84,41.72Z"/><path class="cls-2" d="M127.09,120.7H91.55a3.65,3.65,0,1,0,0,7.3h35.54a3.65,3.65,0,1,0,0-7.3Z"/><path class="cls-3" d="M127.09,102.77H63.36a3.65,3.65,0,0,0,0,7.29h63.73a3.65,3.65,0,1,0,0-7.29Z"/><path class="cls-4" d="M127.09,84.83H63.36a3.65,3.65,0,0,0,0,7.3h63.73a3.65,3.65,0,0,0,0-7.3Z"/></svg>