<svg id="Capa_1" data-name="Capa 1" xmlns="http://www.w3.org/2000/svg" xmlns:xlink="http://www.w3.org/1999/xlink" viewBox="0 0 118.68 132.91"><defs><style>.cls-1{fill:url(#Degradado_sin_nombre_69);}.cls-2{fill:url(#Degradado_sin_nombre_69-2);}</style><linearGradient id="Degradado_sin_nombre_69" x1="13.87" y1="92.82" x2="104.81" y2="1.88" gradientUnits="userSpaceOnUse"><stop offset="0" stop-color="#7fba28"/><stop offset="0.55" stop-color="#009f89"/><stop offset="0.63" stop-color="#00a090"/><stop offset="0.75" stop-color="#00a2a2"/><stop offset="0.88" stop-color="#00a6c1"/><stop offset="1" stop-color="#00aae3"/></linearGradient><linearGradient id="Degradado_sin_nombre_69-2" x1="42.09" y1="71.13" x2="87.63" y2="25.59" xlink:href="#Degradado_sin_nombre_69"/></defs><title>icon</title><path class="cls-1" d="M59.34,132.91a3,3,0,0,1-1.79-.6C12.27,98.56,4,75.12,2.6,66.61,2.34,65.07-.36,25,0,17.24A3.06,3.06,0,0,1,.88,15.3L14.84.91A3,3,0,0,1,17,0h84.68a3,3,0,0,1,2.16.91l14,14.39a3.06,3.06,0,0,1,.84,1.94c.4,7.71-2.3,47.83-2.56,49.37-1.44,8.51-9.67,32-54.95,65.7A3,3,0,0,1,59.34,132.91ZM6,18.65C5.86,28.23,8.33,64,8.53,65.7c3.86,22.83,37.8,50.57,50.81,60.45,13-9.88,47-37.63,50.82-60.54.2-1.61,2.66-37.38,2.52-47L100.41,6H18.27Z"/><path class="cls-2" d="M53.16,81h0a3,3,0,0,1-2.21-1L34.05,61.05a3,3,0,1,1,4.47-4L53.2,73.49,90.68,33a3,3,0,1,1,4.4,4.07L55.36,80A3,3,0,0,1,53.16,81Z"/></svg>