<svg id="Capa_1" data-name="Capa 1" xmlns="http://www.w3.org/2000/svg" xmlns:xlink="http://www.w3.org/1999/xlink" viewBox="0 0 149.72 118.9"><defs><style>.cls-1{fill:url(#Degradado_sin_nombre_69);}.cls-2{fill:url(#Degradado_sin_nombre_69-2);}.cls-3{fill:url(#Degradado_sin_nombre_69-3);}.cls-4{fill:url(#Degradado_sin_nombre_69-4);}</style><linearGradient id="Degradado_sin_nombre_69" x1="10.49" y1="123.83" x2="139.23" y2="-4.92" gradientUnits="userSpaceOnUse"><stop offset="0" stop-color="#7fba28"/><stop offset="0.55" stop-color="#009f89"/><stop offset="0.63" stop-color="#00a090"/><stop offset="0.75" stop-color="#00a2a2"/><stop offset="0.88" stop-color="#00a6c1"/><stop offset="1" stop-color="#00aae3"/></linearGradient><linearGradient id="Degradado_sin_nombre_69-2" x1="123.21" y1="103.05" x2="131.64" y2="94.62" xlink:href="#Degradado_sin_nombre_69"/><linearGradient id="Degradado_sin_nombre_69-3" x1="108.66" y1="98.5" x2="126.18" y2="80.98" xlink:href="#Degradado_sin_nombre_69"/><linearGradient id="Degradado_sin_nombre_69-4" x1="101.16" y1="101" x2="113.68" y2="88.48" xlink:href="#Degradado_sin_nombre_69"/></defs><title>icon</title><path class="cls-1" d="M140.24,0H9.48A9.49,9.49,0,0,0,0,9.48v99.94a9.49,9.49,0,0,0,9.48,9.48H140.24a9.49,9.49,0,0,0,9.48-9.48V9.48A9.49,9.49,0,0,0,140.24,0ZM9.48,6.16H140.24a3.32,3.32,0,0,1,3.32,3.32V59.63H112L101.67,36a3,3,0,0,0-5.42-.16L86.68,54.68l-14.28-37a3,3,0,0,0-5.72.42L52,83,40.52,44.78A3,3,0,0,0,35,44.31L27.4,59.63H6.16V9.48A3.32,3.32,0,0,1,9.48,6.16ZM140.24,112.74H9.48a3.32,3.32,0,0,1-3.32-3.32V65.63H29.27A3,3,0,0,0,32,64l5-10.15L49.5,95.6a3,3,0,0,0,2.87,2.14h.11A3,3,0,0,0,55.3,95.4L70.35,29l13.16,34.1A3,3,0,0,0,89,63.4l9.74-19.2,8.55,19.63a3,3,0,0,0,2.75,1.8h33.54v43.79A3.32,3.32,0,0,1,140.24,112.74Z"/><path class="cls-2" d="M127.42,91.91a3.66,3.66,0,0,0-3.65,3.65v6.54a3.65,3.65,0,1,0,7.3,0V95.56A3.66,3.66,0,0,0,127.42,91.91Z"/><path class="cls-3" d="M117.42,73.73a3.65,3.65,0,0,0-3.65,3.65V102.1a3.65,3.65,0,1,0,7.3,0V77.38A3.65,3.65,0,0,0,117.42,73.73Z"/><path class="cls-4" d="M107.42,83.73a3.65,3.65,0,0,0-3.65,3.65V102.1a3.65,3.65,0,1,0,7.3,0V87.38A3.65,3.65,0,0,0,107.42,83.73Z"/></svg>