<svg id="Capa_1" data-name="Capa 1" xmlns="http://www.w3.org/2000/svg" xmlns:xlink="http://www.w3.org/1999/xlink" viewBox="0 0 132.22 157.52"><defs><style>.cls-1{fill:url(#Degradado_sin_nombre_69);}.cls-2{fill:url(#Degradado_sin_nombre_69-2);}.cls-3{fill:url(#Degradado_sin_nombre_69-3);}.cls-4{fill:url(#Degradado_sin_nombre_69-4);}.cls-5{fill:url(#Degradado_sin_nombre_69-5);}.cls-6{fill:url(#Degradado_sin_nombre_69-6);}</style><linearGradient id="Degradado_sin_nombre_69" x1="41.35" y1="81.81" x2="78.37" y2="44.79" gradientUnits="userSpaceOnUse"><stop offset="0" stop-color="#7fba28"/><stop offset="0.55" stop-color="#009f89"/><stop offset="0.63" stop-color="#00a090"/><stop offset="0.75" stop-color="#00a2a2"/><stop offset="0.88" stop-color="#00a6c1"/><stop offset="1" stop-color="#00aae3"/></linearGradient><linearGradient id="Degradado_sin_nombre_69-2" x1="41.35" y1="63.87" x2="78.37" y2="26.85" xlink:href="#Degradado_sin_nombre_69"/><linearGradient id="Degradado_sin_nombre_69-3" x1="41.35" y1="45.94" x2="78.37" y2="8.92" xlink:href="#Degradado_sin_nombre_69"/><linearGradient id="Degradado_sin_nombre_69-4" x1="34.3" y1="110.63" x2="57.23" y2="87.7" xlink:href="#Degradado_sin_nombre_69"/><linearGradient id="Degradado_sin_nombre_69-5" x1="41.35" y1="99.74" x2="78.37" y2="62.72" xlink:href="#Degradado_sin_nombre_69"/><linearGradient id="Degradado_sin_nombre_69-6" x1="-1.75" y1="142.41" x2="127" y2="13.66" xlink:href="#Degradado_sin_nombre_69"/></defs><title>icon</title><path class="cls-1" d="M28,66.94H91.72a3.65,3.65,0,1,0,0-7.29H28a3.67,3.67,0,0,0-3.64,3.65h0A3.64,3.64,0,0,0,28,66.94Z"/><path class="cls-2" d="M28,49H91.72a3.65,3.65,0,1,0,0-7.29H28A3.65,3.65,0,0,0,28,49Z"/><path class="cls-3" d="M28,31.08H91.72a3.65,3.65,0,1,0,0-7.3H28a3.65,3.65,0,0,0,0,7.3Z"/><path class="cls-4" d="M63.54,95.51H28a3.65,3.65,0,0,0,0,7.3H63.54a3.65,3.65,0,0,0,0-7.3Z"/><path class="cls-5" d="M28,84.88H91.72a3.65,3.65,0,1,0,0-7.3H28a3.65,3.65,0,0,0,0,7.3Z"/><path class="cls-6" d="M118.9,112.26V9.48A9.49,9.49,0,0,0,109.42,0H9.48A9.5,9.5,0,0,0,0,9.48V140.24a9.49,9.49,0,0,0,9.48,9.48H90.73a23.85,23.85,0,1,0,28.17-37.46ZM9.48,143.56a3.32,3.32,0,0,1-3.32-3.32V9.48A3.32,3.32,0,0,1,9.48,6.16h99.94a3.32,3.32,0,0,1,3.32,3.32V110.22a23.37,23.37,0,0,0-4.37-.41,23.85,23.85,0,0,0-21.71,33.75Zm110.44-6.89h-8.55v8.55a3,3,0,0,1-6,0v-8.55H96.82a3,3,0,0,1,0-6h8.55v-8.56a3,3,0,0,1,6,0v8.56h8.55a3,3,0,0,1,0,6Z"/></svg>