<svg id="Capa_1" data-name="Capa 1" xmlns="http://www.w3.org/2000/svg" xmlns:xlink="http://www.w3.org/1999/xlink" viewBox="0 0 149.72 118.9"><defs><style>.cls-1{fill:url(#Degradado_sin_nombre_69);}.cls-2{fill:url(#Degradado_sin_nombre_69-2);}.cls-3{fill:url(#Degradado_sin_nombre_69-3);}.cls-4{fill:url(#Degradado_sin_nombre_69-4);}.cls-5{fill:url(#Degradado_sin_nombre_69-5);}.cls-6{fill:url(#Degradado_sin_nombre_69-6);}</style><linearGradient id="Degradado_sin_nombre_69" x1="38.46" y1="-1243.01" x2="167.21" y2="-1371.76" gradientTransform="translate(1382.25 162.29) rotate(-90)" gradientUnits="userSpaceOnUse"><stop offset="0" stop-color="#7fba28"/><stop offset="0.55" stop-color="#009f89"/><stop offset="0.63" stop-color="#00a090"/><stop offset="0.75" stop-color="#00a2a2"/><stop offset="0.88" stop-color="#00a6c1"/><stop offset="1" stop-color="#00aae3"/></linearGradient><linearGradient id="Degradado_sin_nombre_69-2" x1="216.54" y1="-55.45" x2="239.47" y2="-78.38" gradientTransform="translate(-188.84 90.09)" xlink:href="#Degradado_sin_nombre_69"/><linearGradient id="Degradado_sin_nombre_69-3" x1="216.54" y1="-27.41" x2="239.47" y2="-50.34" gradientTransform="translate(-188.84 90.09)" xlink:href="#Degradado_sin_nombre_69"/><linearGradient id="Degradado_sin_nombre_69-4" x1="223.59" y1="-33.39" x2="260.61" y2="-70.41" gradientTransform="translate(-188.84 90.09)" xlink:href="#Degradado_sin_nombre_69"/><linearGradient id="Degradado_sin_nombre_69-5" x1="11.15" y1="69.39" x2="42.72" y2="37.81" gradientTransform="translate(55.9 25.32)" xlink:href="#Degradado_sin_nombre_69"/><linearGradient id="Degradado_sin_nombre_69-6" x1="103.06" y1="95.84" x2="125.59" y2="73.31" gradientTransform="matrix(1, 0, 0, 1, 0, 0)" xlink:href="#Degradado_sin_nombre_69"/></defs><title>icon</title><path class="cls-1" d="M0,9.48v99.94a9.49,9.49,0,0,0,9.48,9.48H140.24a9.49,9.49,0,0,0,9.48-9.48V9.48A9.49,9.49,0,0,0,140.24,0H9.48A9.5,9.5,0,0,0,0,9.48ZM140.24,6.16a3.32,3.32,0,0,1,3.32,3.32v99.94a3.32,3.32,0,0,1-3.32,3.32H9.48a3.32,3.32,0,0,1-3.32-3.32V9.48A3.32,3.32,0,0,1,9.48,6.16Z"/><path class="cls-2" d="M56.93,19.53H21.39a3.65,3.65,0,1,0,0,7.29H56.93a3.65,3.65,0,1,0,0-7.29Z"/><path class="cls-3" d="M56.93,47.57H21.39a3.65,3.65,0,1,0,0,7.29H56.93a3.65,3.65,0,1,0,0-7.29Z"/><path class="cls-4" d="M85.12,34.54H21.39a3.65,3.65,0,0,0,0,7.3H85.12a3.65,3.65,0,0,0,0-7.3Z"/><path class="cls-5" d="M99,63.56l-.84-.85a10.41,10.41,0,0,0-14.7,0l-7,7h0l-1.42,1.41-1.41,1.42h0l-7,7a10.41,10.41,0,0,0,0,14.7l.85.84a10.38,10.38,0,0,0,14.7,0l7-7h0l1.42-1.42L92,85.28h0l7-7A10.38,10.38,0,0,0,99,63.56ZM96.22,75.43l-7,7-4.94-4.94-4.94-4.94,7-7a6.4,6.4,0,0,1,9,0l.85.85A6.4,6.4,0,0,1,96.22,75.43Z"/><path class="cls-6" d="M125.59,73.31a15.93,15.93,0,1,0,0,22.53A15.93,15.93,0,0,0,125.59,73.31Zm-1.92,4.75L107.81,93.92A2,2,0,0,1,105,91.09l15.86-15.86a2,2,0,0,1,2.83,2.83Z"/></svg>