<svg id="Capa_1" data-name="Capa 1" xmlns="http://www.w3.org/2000/svg" xmlns:xlink="http://www.w3.org/1999/xlink" viewBox="0 0 115.28 127.32"><defs><style>.cls-1{fill:url(#Degradado_sin_nombre_69);}.cls-2{fill:url(#Degradado_sin_nombre_69-2);}.cls-3{fill:url(#Degradado_sin_nombre_69-3);}.cls-4{fill:url(#Degradado_sin_nombre_69-4);}.cls-5{fill:url(#Degradado_sin_nombre_69-5);}.cls-6{fill:url(#Degradado_sin_nombre_69-6);}</style><linearGradient id="Degradado_sin_nombre_69" x1="25.13" y1="62.33" x2="66.89" y2="20.57" gradientUnits="userSpaceOnUse"><stop offset="0" stop-color="#7fba28"/><stop offset="0.55" stop-color="#009f89"/><stop offset="0.63" stop-color="#00a090"/><stop offset="0.75" stop-color="#00a2a2"/><stop offset="0.88" stop-color="#00a6c1"/><stop offset="1" stop-color="#00aae3"/></linearGradient><linearGradient id="Degradado_sin_nombre_69-2" x1="25.13" y1="84.92" x2="66.89" y2="43.15" xlink:href="#Degradado_sin_nombre_69"/><linearGradient id="Degradado_sin_nombre_69-3" x1="25.13" y1="107.51" x2="66.89" y2="65.74" xlink:href="#Degradado_sin_nombre_69"/><linearGradient id="Degradado_sin_nombre_69-4" x1="-2.13" y1="123.44" x2="117.42" y2="3.89" xlink:href="#Degradado_sin_nombre_69"/><linearGradient id="Degradado_sin_nombre_69-5" x1="50.57" y1="111.81" x2="57.79" y2="104.59" xlink:href="#Degradado_sin_nombre_69"/><linearGradient id="Degradado_sin_nombre_69-6" x1="68.05" y1="111.81" x2="75.27" y2="104.59" xlink:href="#Degradado_sin_nombre_69"/></defs><title>icon</title><path class="cls-1" d="M15.24,51.2H76.78a3,3,0,0,0,3-3V34.7a3,3,0,0,0-3-3H15.24a3,3,0,0,0-3,3V48.2A3,3,0,0,0,15.24,51.2Zm3-13.5H73.78v7.5H18.24Z"/><path class="cls-2" d="M15.24,73.79H76.78a3,3,0,0,0,3-3V57.28a3,3,0,0,0-3-3H15.24a3,3,0,0,0-3,3V70.79A3,3,0,0,0,15.24,73.79Zm3-13.51H73.78v7.51H18.24Z"/><path class="cls-3" d="M15.24,96.38H76.78a3,3,0,0,0,3-3V79.87a3,3,0,0,0-3-3H15.24a3,3,0,0,0-3,3V93.38A3,3,0,0,0,15.24,96.38Zm3-13.51H73.78v7.51H18.24Z"/><path class="cls-4" d="M115.27,2.9a2.31,2.31,0,0,0,0-.37,1.42,1.42,0,0,0,0-.2.22.22,0,0,0,0-.08c0-.1-.07-.19-.1-.28A1.15,1.15,0,0,0,115,1.8a3,3,0,0,0-.25-.47l0-.06a2.57,2.57,0,0,0-.29-.35L114.3.79A2,2,0,0,0,114,.57l-.17-.11-.3-.17-.19-.08L113,.1l-.18,0a2.6,2.6,0,0,0-.56-.06H26a3.06,3.06,0,0,0-1.45.37L1.55,13.1l-.1.07-.27.18L1,13.53l-.2.21A2,2,0,0,0,.58,14a1.28,1.28,0,0,0-.15.25,2,2,0,0,0-.14.25,2.18,2.18,0,0,0-.11.27A2.76,2.76,0,0,0,.1,15c0,.1,0,.19-.06.28l0,.32s0,.08,0,.12v108.6a3,3,0,0,0,3,3H89.28a2.74,2.74,0,0,0,.64-.08l.19-.06a2.82,2.82,0,0,0,.48-.19l.1,0,23-12.73a3,3,0,0,0,1.55-2.62V3A.34.34,0,0,0,115.27,2.9ZM26.81,6h73.84L88.47,12.72H14.64ZM86.24,121.32H6V18.72H86.24Zm6-2.08V17.49l17-9.41V109.83Z"/><path class="cls-5" d="M54.23,103.13h-.1a5.07,5.07,0,0,0,0,10.14h.1a5.07,5.07,0,0,0,0-10.14Z"/><path class="cls-6" d="M71.71,103.13h-.1a5.07,5.07,0,1,0,0,10.14h.1a5.07,5.07,0,1,0,0-10.14Z"/></svg>