<svg id="Capa_1" data-name="Capa 1" xmlns="http://www.w3.org/2000/svg" xmlns:xlink="http://www.w3.org/1999/xlink" viewBox="0 0 140 114.28"><defs><style>.cls-1{fill:url(#Degradado_sin_nombre_69);}.cls-2{fill:url(#Degradado_sin_nombre_69-2);}.cls-3{fill:url(#Degradado_sin_nombre_69-3);}</style><linearGradient id="Degradado_sin_nombre_69" x1="35.15" y1="111.23" x2="105.36" y2="41.02" gradientUnits="userSpaceOnUse"><stop offset="0" stop-color="#7fba28"/><stop offset="0.55" stop-color="#009f89"/><stop offset="0.63" stop-color="#00a090"/><stop offset="0.75" stop-color="#00a2a2"/><stop offset="0.88" stop-color="#00a6c1"/><stop offset="1" stop-color="#00aae3"/></linearGradient><linearGradient id="Degradado_sin_nombre_69-2" x1="34.3" y1="71.61" x2="105.7" y2="0.21" xlink:href="#Degradado_sin_nombre_69"/><linearGradient id="Degradado_sin_nombre_69-3" x1="116.99" y1="98.05" x2="148.67" y2="66.38" xlink:href="#Degradado_sin_nombre_69"/></defs><title>icon</title><path class="cls-1" d="M122,58.11a2.45,2.45,0,0,0-1.28.49L79,84.2a18.24,18.24,0,0,1-18,0l-40.68-25a3.59,3.59,0,0,0-1.66-.5c-1,0-2,.64-2,3.34V87c0,13.12,23.88,27.27,53.34,27.27S123.34,100.13,123.34,87V60.69C123.34,58.62,122.67,58.11,122,58.11Zm-4.67,27.14V87c0,4-4.89,9.21-12.46,13.27-9.48,5.08-22.19,8-34.88,8s-25.4-2.92-34.88-8C27.55,96.22,22.66,91,22.66,87V67.71l35.22,21.6a24.16,24.16,0,0,0,24.24,0l35.22-21.6Z"/><path class="cls-2" d="M70,78.85a11.05,11.05,0,0,0,5.68-1.44l62-38c3.12-1.92,3.12-5,0-7l-62-31a11.92,11.92,0,0,0-11.36,0l-62,31c-3.12,1.92-3.12,5,0,7l62,38A11.05,11.05,0,0,0,70,78.85Zm-3-72a3.25,3.25,0,0,0,.45-.25,6.19,6.19,0,0,1,5.1,0A4,4,0,0,0,73,6.8l58.57,29.29-59,36.2a6.09,6.09,0,0,1-5.1,0l-59-36.2Z"/><path class="cls-3" d="M135.76,96.65a1.06,1.06,0,0,1-.67-.91v-42s0-1.46-.71-1.46a.84.84,0,0,0-.44.13A34.23,34.23,0,0,0,129.86,55c-.94.82-.73,2.66-.73,2.66V95.74a1.13,1.13,0,0,1-.69.93,7.24,7.24,0,1,0,7.32,0Zm-3.65,7.52a1.25,1.25,0,0,1-1.25-1.25,1.28,1.28,0,0,1,.64-1.09l.61-.39c.2.13.4.27.63.4a1.25,1.25,0,0,1-.63,2.33Z"/></svg>