<svg id="Capa_1" data-name="Capa 1" xmlns="http://www.w3.org/2000/svg" xmlns:xlink="http://www.w3.org/1999/xlink" viewBox="0 0 144.9 111.21"><defs><style>.cls-1{fill:url(#Degradado_sin_nombre_69);}.cls-2{fill:url(#Degradado_sin_nombre_69-2);}.cls-3{fill:url(#Degradado_sin_nombre_69-3);}</style><linearGradient id="Degradado_sin_nombre_69" x1="26.09" y1="98.31" x2="118.87" y2="5.53" gradientUnits="userSpaceOnUse"><stop offset="0" stop-color="#7fba28"/><stop offset="0.55" stop-color="#009f89"/><stop offset="0.63" stop-color="#00a090"/><stop offset="0.75" stop-color="#00a2a2"/><stop offset="0.88" stop-color="#00a6c1"/><stop offset="1" stop-color="#00aae3"/></linearGradient><linearGradient id="Degradado_sin_nombre_69-2" x1="46.19" y1="91.94" x2="98.71" y2="39.42" xlink:href="#Degradado_sin_nombre_69"/><linearGradient id="Degradado_sin_nombre_69-3" x1="61.11" y1="77.02" x2="83.79" y2="54.34" xlink:href="#Degradado_sin_nombre_69"/></defs><title>icon</title><path class="cls-1" d="M144.57,64.31a80.79,80.79,0,0,0-26.36-29.88l11.57-14.17a3,3,0,0,0-4.65-3.8l-12,14.75a81.13,81.13,0,0,0-38.8-11V3a3,3,0,0,0-6,0V20.25A80.92,80.92,0,0,0,31.71,31.1L19.77,16.46a3,3,0,0,0-4.65,3.8L26.61,34.33a80.72,80.72,0,0,0-26.28,30A3,3,0,0,0,.33,67a81.48,81.48,0,0,0,72.15,44.17h1.16A80.72,80.72,0,0,0,144.57,67,3,3,0,0,0,144.57,64.31Zm-71,40.89A75.55,75.55,0,0,1,6.38,65.68a75,75,0,0,1,132.13,0A74.73,74.73,0,0,1,73.55,105.2Z"/><path class="cls-2" d="M72.45,28.67a37,37,0,1,0,37.29,37A37.19,37.19,0,0,0,72.45,28.67Zm0,68a31,31,0,1,1,31.29-31A31.19,31.19,0,0,1,72.45,96.69Z"/><circle class="cls-3" cx="72.45" cy="65.68" r="16.04"/></svg>