<svg id="Capa_1" data-name="Capa 1" xmlns="http://www.w3.org/2000/svg" xmlns:xlink="http://www.w3.org/1999/xlink" viewBox="0 0 83.9 149.11"><defs><style>.cls-1{fill:url(#Degradado_sin_nombre_2);}.cls-2{fill:url(#Degradado_sin_nombre_2-2);}.cls-3{fill:url(#Degradado_sin_nombre_2-3);}</style><linearGradient id="Degradado_sin_nombre_2" y1="74.55" x2="83.9" y2="74.55" gradientUnits="userSpaceOnUse"><stop offset="0" stop-color="#95c122"/><stop offset="0.55" stop-color="#2bb090"/><stop offset="0.61" stop-color="#2bb196"/><stop offset="0.7" stop-color="#2bb1a2"/><stop offset="0.8" stop-color="#2fafb4"/><stop offset="0.91" stop-color="#32adce"/><stop offset="1" stop-color="#3ba9e0"/></linearGradient><linearGradient id="Degradado_sin_nombre_2-2" x1="18.05" y1="67.27" x2="44.86" y2="67.27" xlink:href="#Degradado_sin_nombre_2"/><linearGradient id="Degradado_sin_nombre_2-3" x1="18.05" y1="78.34" x2="39.6" y2="78.34" xlink:href="#Degradado_sin_nombre_2"/></defs><title>icon</title><path class="cls-1" d="M70.27,0H13.63C6.12,0,0,3.12,0,10.63v1.93c0,6.61,4.74,9.14,11,10.37v95.22a31,31,0,1,0,61.91,0V22.93c6.26-1.23,11-3.76,11-10.37V10.63C83.9,3.12,77.78,0,70.27,0ZM16.81,53.12H56.57V96.59H16.81Zm50.27,65a25.14,25.14,0,1,1-50.27,0V102.41H59.48a2.91,2.91,0,0,0,2.91-2.91V50.21a2.91,2.91,0,0,0-2.91-2.91H16.81V23.19H67.08Zm11-105.59c0,4.31-3.51,4.81-7.81,4.81H13.63c-4.31,0-7.81-.5-7.81-4.81V10.63c0-4.31,3.5-4.81,7.81-4.81H70.27c4.3,0,7.81.5,7.81,4.81Z"/><path class="cls-2" d="M42,64.36H21a2.91,2.91,0,1,0,0,5.82H42a2.91,2.91,0,0,0,0-5.82Z"/><path class="cls-3" d="M36.69,75.43H21a2.91,2.91,0,0,0,0,5.82H36.69a2.91,2.91,0,1,0,0-5.82Z"/></svg>