<svg id="Capa_1" data-name="Capa 1" xmlns="http://www.w3.org/2000/svg" xmlns:xlink="http://www.w3.org/1999/xlink" viewBox="0 0 137.25 107.33"><defs><style>.cls-1{fill:url(#Degradado_sin_nombre_69);}.cls-2{fill:url(#Degradado_sin_nombre_69-2);}.cls-3{fill:url(#Degradado_sin_nombre_69-3);}.cls-4{fill:url(#Degradado_sin_nombre_69-4);}.cls-5{fill:url(#Degradado_sin_nombre_69-5);}</style><linearGradient id="Degradado_sin_nombre_69" x1="117.25" y1="29.28" x2="124.23" y2="22.3" gradientUnits="userSpaceOnUse"><stop offset="0" stop-color="#7fba28"/><stop offset="0.55" stop-color="#009f89"/><stop offset="0.63" stop-color="#00a090"/><stop offset="0.75" stop-color="#00a2a2"/><stop offset="0.88" stop-color="#00a6c1"/><stop offset="1" stop-color="#00aae3"/></linearGradient><linearGradient id="Degradado_sin_nombre_69-2" x1="33.19" y1="67.14" x2="109.28" y2="-8.95" xlink:href="#Degradado_sin_nombre_69"/><linearGradient id="Degradado_sin_nombre_69-3" x1="54.61" y1="103.45" x2="73.35" y2="84.7" xlink:href="#Degradado_sin_nombre_69"/><linearGradient id="Degradado_sin_nombre_69-4" x1="38.63" y1="77.3" x2="89.27" y2="26.66" xlink:href="#Degradado_sin_nombre_69"/><linearGradient id="Degradado_sin_nombre_69-5" x1="46.88" y1="88.72" x2="81.02" y2="54.57" xlink:href="#Degradado_sin_nombre_69"/></defs><title>icon</title><path class="cls-1" d="M120.74,20.86a4.94,4.94,0,1,0,4.94,4.93A4.94,4.94,0,0,0,120.74,20.86Z"/><path class="cls-2" d="M120.69,9.32a16.53,16.53,0,0,0-11.44,4.6h0A80.51,80.51,0,0,0,1.09,30.28,8.36,8.36,0,0,0,.52,31a3,3,0,0,0,5,3.39.94.94,0,0,1,.09-.12l.16-.18a74.48,74.48,0,0,1,100-15.31h0a16.55,16.55,0,1,0,15-9.46Zm-14.24,8.13Zm1.8-2.48,0,0Zm-1,1.19,0,0Zm24.7,11a.45.45,0,0,1-.39.44l-2,.22-.12.44a9.16,9.16,0,0,1-.89,2.13l-.23.38,1.28,1.63a.43.43,0,0,1,0,.58l-1.83,1.82a.44.44,0,0,1-.58,0l-1.63-1.3-.39.22a8.91,8.91,0,0,1-2.17.88l-.44.11-.24,2.1a.43.43,0,0,1-.43.39h-2.59a.44.44,0,0,1-.43-.39l-.25-2.15-.42-.12a8.85,8.85,0,0,1-2-.86l-.38-.22-1.69,1.33a.43.43,0,0,1-.58,0l-1.82-1.83a.44.44,0,0,1,0-.58L113,30.67l-.22-.39a9.58,9.58,0,0,1-.82-2l-.12-.42-2.12-.25a.42.42,0,0,1-.38-.43V24.64a.43.43,0,0,1,.38-.43l2-.23.11-.45a9.18,9.18,0,0,1,.84-2.12L113,21l-1.27-1.61a.44.44,0,0,1,0-.58L113.56,17a.44.44,0,0,1,.58,0l1.55,1.23.39-.24a9.35,9.35,0,0,1,2.28-1l.43-.11L119,15a.45.45,0,0,1,.44-.39H122a.44.44,0,0,1,.44.39l.22,1.93.43.11a9.23,9.23,0,0,1,2.22.93l.39.23,1.5-1.19a.44.44,0,0,1,.58,0l1.82,1.82a.44.44,0,0,1,0,.59L128.46,21l.21.38a8.92,8.92,0,0,1,.86,2.11l.11.43,2,.23a.45.45,0,0,1,.39.44Z"/><path class="cls-3" d="M64,80.82A13.26,13.26,0,1,0,77.23,94.07h0A13.24,13.24,0,0,0,64,80.82Z"/><path class="cls-4" d="M102.37,40.33a61.84,61.84,0,0,0-86.79,10l-.14.18a3,3,0,0,0,2.39,4.77,3.09,3.09,0,0,0,2.41-1.16,55.81,55.81,0,0,1,87.47,0,3,3,0,1,0,4.7-3.73A62,62,0,0,0,102.37,40.33Z"/><path class="cls-5" d="M89.42,63.35A41,41,0,0,0,31.88,70a3,3,0,0,0,4.7,3.73,34.92,34.92,0,0,1,54.75,0A3,3,0,0,0,96,70,40.92,40.92,0,0,0,89.42,63.35Z"/></svg>