<svg id="Capa_1" data-name="Capa 1" xmlns="http://www.w3.org/2000/svg" xmlns:xlink="http://www.w3.org/1999/xlink" viewBox="0 0 133.92 88.23"><defs><style>.cls-1{fill:url(#Degradado_sin_nombre_69);}.cls-2{fill:url(#Degradado_sin_nombre_69-2);}.cls-3{fill:url(#Degradado_sin_nombre_69-3);}</style><linearGradient id="Degradado_sin_nombre_69" x1="27.52" y1="48.54" x2="56.58" y2="19.47" gradientUnits="userSpaceOnUse"><stop offset="0" stop-color="#7fba28"/><stop offset="0.55" stop-color="#009f89"/><stop offset="0.63" stop-color="#00a090"/><stop offset="0.75" stop-color="#00a2a2"/><stop offset="0.88" stop-color="#00a6c1"/><stop offset="1" stop-color="#00aae3"/></linearGradient><linearGradient id="Degradado_sin_nombre_69-2" x1="24.83" y1="58.5" x2="48.52" y2="34.81" xlink:href="#Degradado_sin_nombre_69"/><linearGradient id="Degradado_sin_nombre_69-3" x1="10.44" y1="96.92" x2="117.03" y2="-9.67" xlink:href="#Degradado_sin_nombre_69"/></defs><title>icon</title><path class="cls-1" d="M17.23,37H66.87a3,3,0,1,0,0-6H17.23a3,3,0,0,0,0,6Z"/><path class="cls-2" d="M59.12,46.65a3,3,0,0,0-3-3H17.23a3,3,0,1,0,0,6H56.12A3,3,0,0,0,59.12,46.65Z"/><path class="cls-3" d="M133.92,12.33a12.32,12.32,0,0,0-21-8.72L102.24,14.25H3a3,3,0,0,0-3,3v68a3,3,0,0,0,3,3H109.24a3,3,0,0,0,3-3V39.11l18.07-18.06A12.25,12.25,0,0,0,133.92,12.33ZM89.41,40.27,82.7,47a3,3,0,0,0,4.24,4.25l6.71-6.71-3,10L74.89,59l4.53-15.8Zm16.83,4.84V82.23H6v-62H96.24L88.47,28a7.87,7.87,0,0,0-2.32,5.6A7.39,7.39,0,0,0,86.27,35L76.14,38a3,3,0,0,0-2,2L67.84,61.84l-3.42,3.42-4-4a3,3,0,1,0-4.25,4.24l4,4-4,4a3,3,0,0,0,0,4.24,3,3,0,0,0,4.25,0l4-4,4,4a3,3,0,0,0,4.24-4.24l-4-4,3.42-3.42,21.84-6.27a3,3,0,0,0,2-2l3-10.13a7.88,7.88,0,0,0,6.92-2.19h0ZM126.07,16.8,101.66,41.21a1.78,1.78,0,0,1-.64.42,1.89,1.89,0,0,1-1.77-.17,1.79,1.79,0,0,1-.31-.25L95.83,38.1h0L92.71,35a1.94,1.94,0,0,1-.56-1.36,2.43,2.43,0,0,1,0-.38,2,2,0,0,1,.53-1L105.6,19.37h0L117.12,7.85a6.34,6.34,0,0,1,8.95,0h0a6.34,6.34,0,0,1,0,9Z"/></svg>