<svg id="Capa_1" data-name="Capa 1" xmlns="http://www.w3.org/2000/svg" xmlns:xlink="http://www.w3.org/1999/xlink" viewBox="0 0 179.7 133.56"><defs><style>.cls-1{fill:url(#Degradado_sin_nombre_69);}.cls-2{fill:url(#Degradado_sin_nombre_69-2);}</style><linearGradient id="Degradado_sin_nombre_69" x1="31.58" y1="141.76" x2="148.13" y2="25.21" gradientUnits="userSpaceOnUse"><stop offset="0" stop-color="#7fba28"/><stop offset="0.55" stop-color="#009f89"/><stop offset="0.63" stop-color="#00a090"/><stop offset="0.75" stop-color="#00a2a2"/><stop offset="0.88" stop-color="#00a6c1"/><stop offset="1" stop-color="#00aae3"/></linearGradient><linearGradient id="Degradado_sin_nombre_69-2" x1="56.06" y1="101.65" x2="76.98" y2="80.72" xlink:href="#Degradado_sin_nombre_69"/></defs><title>icon</title><path class="cls-1" d="M156.65,71.48a21.34,21.34,0,1,0-21.58,0,30.25,30.25,0,0,0-10.62,5A44.21,44.21,0,0,0,106,66.17a35.06,35.06,0,1,0-32.3,0,44.28,44.28,0,0,0-18.45,10.3,30.17,30.17,0,0,0-10.62-5,21.34,21.34,0,1,0-21.58,0A30.33,30.33,0,0,0,0,100.89v5.4a9.44,9.44,0,0,0,9.44,9.43h31.7A17.93,17.93,0,0,0,59,133.56h61.62a17.94,17.94,0,0,0,17.91-17.84h31.7a9.44,9.44,0,0,0,9.43-9.43v-5.4A30.33,30.33,0,0,0,156.65,71.48ZM60.79,35.06A29.07,29.07,0,1,1,89.85,64.13,29.1,29.1,0,0,1,60.79,35.06Zm59.87,92.5H59a11.92,11.92,0,0,1-11.9-11.84h0s0,0,0-.07v-6.82c0-.68,0-1.36.06-2,0-.22,0-.44.05-.66,0-.45.06-.9.11-1.35,0-.25.06-.51.09-.76.06-.41.11-.81.17-1.21s.09-.54.14-.81.14-.76.22-1.14.12-.54.19-.81.17-.73.27-1.1.15-.53.23-.8.21-.72.33-1.07.17-.52.26-.78.25-.71.38-1.06l.3-.75c.14-.36.29-.7.44-1l.33-.72c.16-.35.33-.69.5-1l.35-.69.57-1c.12-.21.24-.42.37-.63s.42-.7.64-1c.13-.19.25-.39.37-.58.24-.36.49-.71.74-1.06l.35-.49c.28-.39.58-.76.87-1.13l.3-.38c.35-.43.72-.86,1.09-1.27l.15-.17c.87-1,1.78-1.88,2.74-2.75h0A38.12,38.12,0,0,1,85.36,70.6h9A38.09,38.09,0,0,1,120,80.48h0c1,.87,1.88,1.79,2.75,2.75l.14.16c.37.42.74.85,1.09,1.28l.3.38c.3.37.59.74.87,1.13l.35.49c.25.35.5.7.74,1.06.13.19.25.39.37.58.22.34.44.69.65,1l.36.63c.19.34.39.69.57,1s.23.46.35.68.34.69.5,1l.33.72c.15.35.3.7.44,1l.3.75c.13.35.26.7.38,1.06s.18.51.27.78.22.71.32,1.07.16.53.23.8.19.73.27,1.1.13.54.19.81.15.76.22,1.14.1.54.14.81.12.8.17,1.21c0,.25.07.51.1.76,0,.45.07.9.11,1.35,0,.22,0,.44.05.66,0,.67,0,1.35,0,2v6.89h0A11.92,11.92,0,0,1,120.66,127.56Z"/><path class="cls-2" d="M72.94,79.53a29.38,29.38,0,0,0-16.07,21.1,3,3,0,0,0,2.41,3.49,3.29,3.29,0,0,0,.54,0,3,3,0,0,0,3-2.46A23.35,23.35,0,0,1,75.55,84.94a3,3,0,0,0-2.61-5.41Z"/></svg>