<svg id="Capa_1" data-name="Capa 1" xmlns="http://www.w3.org/2000/svg" xmlns:xlink="http://www.w3.org/1999/xlink" viewBox="0 0 118.9 149.72"><defs><style>.cls-1{fill:url(#Degradado_sin_nombre_69);}.cls-2{fill:url(#Degradado_sin_nombre_69-2);}.cls-3{fill:url(#Degradado_sin_nombre_69-3);}.cls-4{fill:url(#Degradado_sin_nombre_69-4);}.cls-5{fill:url(#Degradado_sin_nombre_69-5);}.cls-6{fill:url(#Degradado_sin_nombre_69-6);}.cls-7{fill:url(#Degradado_sin_nombre_69-7);}.cls-8{fill:url(#Degradado_sin_nombre_69-8);}</style><linearGradient id="Degradado_sin_nombre_69" x1="-4.92" y1="139.24" x2="123.83" y2="10.49" gradientUnits="userSpaceOnUse"><stop offset="0" stop-color="#7fba28"/><stop offset="0.55" stop-color="#009f89"/><stop offset="0.63" stop-color="#00a090"/><stop offset="0.75" stop-color="#00a2a2"/><stop offset="0.88" stop-color="#00a6c1"/><stop offset="1" stop-color="#00aae3"/></linearGradient><linearGradient id="Degradado_sin_nombre_69-2" x1="40.94" y1="64.05" x2="77.96" y2="27.03" xlink:href="#Degradado_sin_nombre_69"/><linearGradient id="Degradado_sin_nombre_69-3" x1="40.94" y1="46.11" x2="77.96" y2="9.09" xlink:href="#Degradado_sin_nombre_69"/><linearGradient id="Degradado_sin_nombre_69-4" x1="41.35" y1="81.81" x2="78.37" y2="44.79" xlink:href="#Degradado_sin_nombre_69"/><linearGradient id="Degradado_sin_nombre_69-5" x1="41.35" y1="63.87" x2="78.37" y2="26.85" xlink:href="#Degradado_sin_nombre_69"/><linearGradient id="Degradado_sin_nombre_69-6" x1="41.35" y1="45.94" x2="78.37" y2="8.92" xlink:href="#Degradado_sin_nombre_69"/><linearGradient id="Degradado_sin_nombre_69-7" x1="34.3" y1="110.63" x2="57.23" y2="87.7" xlink:href="#Degradado_sin_nombre_69"/><linearGradient id="Degradado_sin_nombre_69-8" x1="41.35" y1="99.74" x2="78.37" y2="62.72" xlink:href="#Degradado_sin_nombre_69"/></defs><title>icon</title><path class="cls-1" d="M109.42,0H9.48A9.5,9.5,0,0,0,0,9.48V140.24a9.49,9.49,0,0,0,9.48,9.48h99.94a9.49,9.49,0,0,0,9.48-9.48V9.48A9.49,9.49,0,0,0,109.42,0Zm3.32,140.24a3.32,3.32,0,0,1-3.32,3.32H9.48a3.32,3.32,0,0,1-3.32-3.32V9.48A3.32,3.32,0,0,1,9.48,6.16h99.94a3.32,3.32,0,0,1,3.32,3.32Z"/><path class="cls-2" d="M91.31,41.89H27.59a3.65,3.65,0,1,0,0,7.29H91.31a3.65,3.65,0,1,0,0-7.29Z"/><path class="cls-3" d="M91.31,24H27.59a3.65,3.65,0,1,0,0,7.29H91.31a3.65,3.65,0,1,0,0-7.29Z"/><path class="cls-4" d="M28,66.94H91.72a3.65,3.65,0,1,0,0-7.29H28a3.67,3.67,0,0,0-3.64,3.65h0A3.64,3.64,0,0,0,28,66.94Z"/><path class="cls-5" d="M28,49H91.72a3.65,3.65,0,1,0,0-7.29H28A3.65,3.65,0,0,0,28,49Z"/><path class="cls-6" d="M28,31.08H91.72a3.65,3.65,0,1,0,0-7.3H28a3.65,3.65,0,0,0,0,7.3Z"/><path class="cls-7" d="M63.54,95.51H28a3.65,3.65,0,0,0,0,7.3H63.54a3.65,3.65,0,0,0,0-7.3Z"/><path class="cls-8" d="M28,84.88H91.72a3.65,3.65,0,1,0,0-7.3H28a3.65,3.65,0,0,0,0,7.3Z"/></svg>