<svg id="Capa_1" data-name="Capa 1" xmlns="http://www.w3.org/2000/svg" xmlns:xlink="http://www.w3.org/1999/xlink" viewBox="0 0 155.19 136.68"><defs><style>.cls-1{fill:url(#Degradado_sin_nombre_3);}</style><linearGradient id="Degradado_sin_nombre_3" y1="68.34" x2="155.19" y2="68.34" gradientUnits="userSpaceOnUse"><stop offset="0" stop-color="#95c11f"/><stop offset="0.55" stop-color="#26b090"/><stop offset="0.64" stop-color="#27af97"/><stop offset="0.76" stop-color="#2baea9"/><stop offset="0.9" stop-color="#31abc8"/><stop offset="1" stop-color="#36a9e1"/></linearGradient></defs><title>icon</title><path class="cls-1" d="M152.19,0H3A3,3,0,0,0,0,3V133.68a3,3,0,0,0,3,3H152.19a3,3,0,0,0,3-3V3A3,3,0,0,0,152.19,0ZM95,61.59a10.37,10.37,0,1,1-20.73,0,10.6,10.6,0,0,1,.35-2.71,9.16,9.16,0,1,1,10-15.16l47.19-23.13a3.16,3.16,0,0,1,2.43-.16A3.19,3.19,0,0,1,136.11,22l5.31,10.85A3.16,3.16,0,0,1,140,37.14L94.77,59.31A10.21,10.21,0,0,1,95,61.59ZM49.38,93.47A11.07,11.07,0,0,1,66,83.86a11.46,11.46,0,1,1,9.38,19.33v27.49H56.56V103.85A11,11,0,0,1,49.38,93.47Zm-.12-29.72c1.44-6,7.31-10.23,8-10.69a3.19,3.19,0,0,1,4.41.78L71.75,68.09A3.18,3.18,0,0,1,70.1,73L53.68,78.08a3.23,3.23,0,0,1-2.46-.24,3.18,3.18,0,0,1-1.55-1.93C49.6,75.65,47.88,69.5,49.26,63.75ZM6,6H119.42L65.23,34.06A50.16,50.16,0,0,0,38.12,78.71v52H6ZM99.82,130.68V100.55a29.32,29.32,0,0,1,16.36-26.4l33-16.4v72.93Z"/></svg>