<svg id="Capa_1" data-name="Capa 1" xmlns="http://www.w3.org/2000/svg" xmlns:xlink="http://www.w3.org/1999/xlink" viewBox="0 0 109.09 141.54"><defs><style>.cls-1{fill:url(#Degradado_sin_nombre_69);}.cls-2{fill:url(#Degradado_sin_nombre_69-2);}</style><linearGradient id="Degradado_sin_nombre_69" x1="14.92" y1="101.65" x2="35.85" y2="80.72" gradientUnits="userSpaceOnUse"><stop offset="0" stop-color="#7fba28"/><stop offset="0.55" stop-color="#009f89"/><stop offset="0.63" stop-color="#00a090"/><stop offset="0.75" stop-color="#00a2a2"/><stop offset="0.88" stop-color="#00a6c1"/><stop offset="1" stop-color="#00aae3"/></linearGradient><linearGradient id="Degradado_sin_nombre_69-2" x1="6.19" y1="129.25" x2="99.33" y2="36.11" xlink:href="#Degradado_sin_nombre_69"/></defs><title>icon</title><path class="cls-1" d="M31.8,79.53a29.39,29.39,0,0,0-16.06,21.1,3,3,0,0,0,2.41,3.49,3.29,3.29,0,0,0,.54,0,3,3,0,0,0,2.95-2.46A23.32,23.32,0,0,1,34.42,84.94a3,3,0,0,0-2.62-5.41Z"/><path class="cls-2" d="M95.59,96.19a44.42,44.42,0,0,0-30.72-30,35.06,35.06,0,1,0-32.3,0A44.3,44.3,0,0,0,0,108.83v6.82a17.94,17.94,0,0,0,17.91,17.91H67.43A23.86,23.86,0,1,0,95.59,96.19ZM19.66,35.06A29.06,29.06,0,1,1,48.72,64.13,29.09,29.09,0,0,1,19.66,35.06Zm-1.75,92.5A11.92,11.92,0,0,1,6,115.65v-6.82A38.27,38.27,0,0,1,44.22,70.6h9A38.29,38.29,0,0,1,88.47,94.05a24.71,24.71,0,0,0-3.24-.22,23.85,23.85,0,0,0-21.71,33.73Zm78.88-6.87H88.23v8.55a3,3,0,0,1-6,0v-8.55H73.68a3,3,0,0,1,0-6h8.55v-8.56a3,3,0,0,1,6,0v8.56h8.56a3,3,0,1,1,0,6Z"/></svg>