<svg id="Capa_1" data-name="Capa 1" xmlns="http://www.w3.org/2000/svg" xmlns:xlink="http://www.w3.org/1999/xlink" viewBox="0 0 97.44 133.56"><defs><style>.cls-1{fill:url(#Degradado_sin_nombre_69);}</style><linearGradient id="Degradado_sin_nombre_69" x1="2.15" y1="125.21" x2="95.29" y2="32.07" gradientUnits="userSpaceOnUse"><stop offset="0" stop-color="#7fba28"/><stop offset="0.55" stop-color="#009f89"/><stop offset="0.63" stop-color="#00a090"/><stop offset="0.75" stop-color="#00a2a2"/><stop offset="0.88" stop-color="#00a6c1"/><stop offset="1" stop-color="#00aae3"/></linearGradient></defs><title>icon</title><path class="cls-1" d="M64.87,66.17a35.06,35.06,0,1,0-32.3,0A44.3,44.3,0,0,0,0,108.83v6.82a17.94,17.94,0,0,0,17.91,17.91H79.53a17.94,17.94,0,0,0,17.91-17.91v-6.82A44.31,44.31,0,0,0,64.87,66.17ZM19.66,35.06A29.06,29.06,0,1,1,48.72,64.13,29.09,29.09,0,0,1,19.66,35.06ZM60.42,83.6A16,16,0,0,1,32.61,73a2.45,2.45,0,0,0-.18-.9,38.83,38.83,0,0,1,11.62-1.77h9.06A38.76,38.76,0,0,1,64.52,72,15.84,15.84,0,0,1,60.42,83.6ZM92.05,116a12.41,12.41,0,0,1-12.41,12.38H17.52A12.4,12.4,0,0,1,5.12,116v-6.86a38.87,38.87,0,0,1,22.29-35.1A21.31,21.31,0,0,0,46,94v17.66a11.1,11.1,0,0,0,22.19,0v-4.15a6.54,6.54,0,1,0-5.25,0v4.14a5.85,5.85,0,0,1-11.69,0V94A21.32,21.32,0,0,0,69.76,74.07a38.88,38.88,0,0,1,22.29,35.1Z"/></svg>