<svg id="Capa_1" data-name="Capa 1" xmlns="http://www.w3.org/2000/svg" xmlns:xlink="http://www.w3.org/1999/xlink" viewBox="0 0 131.98 131.98"><defs><style>.cls-1{fill:url(#Degradado_sin_nombre_69);}.cls-2{fill:url(#Degradado_sin_nombre_69-2);}</style><linearGradient id="Degradado_sin_nombre_69" x1="48.45" y1="83.53" x2="83.53" y2="48.45" gradientUnits="userSpaceOnUse"><stop offset="0" stop-color="#7fba28"/><stop offset="0.55" stop-color="#009f89"/><stop offset="0.63" stop-color="#00a090"/><stop offset="0.75" stop-color="#00a2a2"/><stop offset="0.88" stop-color="#00a6c1"/><stop offset="1" stop-color="#00aae3"/></linearGradient><linearGradient id="Degradado_sin_nombre_69-2" x1="19.35" y1="112.63" x2="112.63" y2="19.35" xlink:href="#Degradado_sin_nombre_69"/></defs><title>icon</title><path class="cls-1" d="M96.83,63H69V35.16a3,3,0,1,0-6,0V63H35.16a3,3,0,1,0,0,6H63V96.83a3,3,0,0,0,6,0V69H96.83a3,3,0,1,0,0-6Z"/><path class="cls-2" d="M66,0a66,66,0,1,0,66,66A66.06,66.06,0,0,0,66,0Zm0,126a60,60,0,1,1,60-60A60.06,60.06,0,0,1,66,126Z"/></svg>