<svg id="Capa_1" data-name="Capa 1" xmlns="http://www.w3.org/2000/svg" xmlns:xlink="http://www.w3.org/1999/xlink" viewBox="0 0 133.56 132.65"><defs><style>.cls-1{fill:url(#Degradado_sin_nombre_69);}.cls-2{fill:url(#Degradado_sin_nombre_69-2);}</style><linearGradient id="Degradado_sin_nombre_69" x1="5.76" y1="134.41" x2="127.81" y2="12.36" gradientUnits="userSpaceOnUse"><stop offset="0" stop-color="#7fba28"/><stop offset="0.55" stop-color="#009f89"/><stop offset="0.63" stop-color="#00a090"/><stop offset="0.75" stop-color="#00a2a2"/><stop offset="0.88" stop-color="#00a6c1"/><stop offset="1" stop-color="#00aae3"/></linearGradient><linearGradient id="Degradado_sin_nombre_69-2" x1="49.91" y1="105.22" x2="83.65" y2="71.48" xlink:href="#Degradado_sin_nombre_69"/></defs><title>icon</title><path class="cls-1" d="M133.56,20.85a7.71,7.71,0,0,0-.07-.84l0-.25c-.05-.25-.1-.5-.17-.75l0-.11q-.13-.41-.3-.78l-.13-.26a6,6,0,0,0-.31-.55l-.14-.22a6.55,6.55,0,0,0-.45-.59l-.23-.25a5.66,5.66,0,0,0-.43-.42l-.22-.19c-.2-.16-.41-.31-.62-.45l-.24-.14a6.45,6.45,0,0,0-.74-.38l0,0-.46-.16-.17-.07-.41-.1a2.1,2.1,0,0,0-.24-.06c-.16,0-.31,0-.47-.08a1.2,1.2,0,0,1-.2,0l-.69,0H111.2v-5a7.73,7.73,0,1,0-15.45,0v5H73.68V7.72a7.73,7.73,0,0,0-15.45,0v6.4H36.17V8.62a7.73,7.73,0,1,0-15.45,0v5.5H6.78a6.7,6.7,0,0,0-2.62.53h0l0,0a6.14,6.14,0,0,0-.72.37l-.25.15c-.2.13-.39.27-.58.42a3,3,0,0,0-.27.23c-.14.13-.27.25-.4.39l-.24.26c-.16.19-.31.38-.44.57s-.11.17-.16.25-.21.36-.31.55l-.12.25a6.16,6.16,0,0,0-.3.79.64.64,0,0,0,0,.07,7.13,7.13,0,0,0-.18.8l0,.21A6.84,6.84,0,0,0,0,20.9V48.44H0v77.41a6.79,6.79,0,0,0,6.78,6.78H99.44c24.24,0,28.21,0,29.35-.33h0a6.76,6.76,0,0,0,4.77-6.47v-105ZM6,45.17V42.56H127.56v2.61ZM101.75,9.11a1.73,1.73,0,1,1,3.45,0V24.23a1.73,1.73,0,0,1-3.45,0ZM64.23,7.72a1.73,1.73,0,0,1,3.45,0V22.84a1.73,1.73,0,1,1-3.45,0Zm-37.51.9a1.73,1.73,0,1,1,3.45,0V23.73a1.73,1.73,0,1,1-3.45,0Zm1.72,22.84a7.74,7.74,0,0,0,7.73-7.73V20.12H58.23v2.72a7.73,7.73,0,1,0,15.45,0V20.12H95.75v4.11a7.73,7.73,0,0,0,15.45,0V20.12h15.58a.76.76,0,0,1,.52.21l0,.05a.57.57,0,0,1,.12.18l0,.05a.72.72,0,0,1,.06.29V36.56H6V20.88a1.84,1.84,0,0,1,0-.25l0-.08a.91.91,0,0,1,.11-.16l0-.06a.77.77,0,0,1,.53-.21H20.72v3.61A7.73,7.73,0,0,0,28.44,31.46ZM127,126.59c-1.63.07-10.15.07-43.46.06H6.78a.78.78,0,0,1-.78-.78V51.44H127.56v74.42A.79.79,0,0,1,127,126.59Z"/><path class="cls-2" d="M66.78,64.49A23.86,23.86,0,1,0,90.64,88.35,23.86,23.86,0,0,0,66.78,64.49ZM78.33,91.35H69.78V99.9a3,3,0,0,1-6,0V91.35H55.23a3,3,0,1,1,0-6h8.55V76.8a3,3,0,1,1,6,0v8.55h8.55a3,3,0,1,1,0,6Z"/></svg>