<svg id="Capa_1" data-name="Capa 1" xmlns="http://www.w3.org/2000/svg" xmlns:xlink="http://www.w3.org/1999/xlink" viewBox="0 0 164.38 149.72"><defs><style>.cls-1{fill:url(#Degradado_sin_nombre_69);}.cls-2{fill:url(#Degradado_sin_nombre_69-2);}.cls-3{fill:url(#Degradado_sin_nombre_69-3);}.cls-4{fill:url(#Degradado_sin_nombre_69-4);}.cls-5{fill:url(#Degradado_sin_nombre_69-5);}.cls-6{fill:url(#Degradado_sin_nombre_69-6);}.cls-7{fill:url(#Degradado_sin_nombre_69-7);}</style><linearGradient id="Degradado_sin_nombre_69" x1="12.78" y1="84.66" x2="36.12" y2="61.32" gradientUnits="userSpaceOnUse"><stop offset="0" stop-color="#7fba28"/><stop offset="0.55" stop-color="#009f89"/><stop offset="0.63" stop-color="#00a090"/><stop offset="0.75" stop-color="#00a2a2"/><stop offset="0.88" stop-color="#00a6c1"/><stop offset="1" stop-color="#00aae3"/></linearGradient><linearGradient id="Degradado_sin_nombre_69-2" x1="12.78" y1="115.87" x2="36.12" y2="92.53" xlink:href="#Degradado_sin_nombre_69"/><linearGradient id="Degradado_sin_nombre_69-3" x1="128.26" y1="84.66" x2="151.6" y2="61.32" xlink:href="#Degradado_sin_nombre_69"/><linearGradient id="Degradado_sin_nombre_69-4" x1="128.26" y1="115.87" x2="151.6" y2="92.53" xlink:href="#Degradado_sin_nombre_69"/><linearGradient id="Degradado_sin_nombre_69-5" x1="63.99" y1="58.52" x2="103.6" y2="18.91" xlink:href="#Degradado_sin_nombre_69"/><linearGradient id="Degradado_sin_nombre_69-6" x1="63.99" y1="102.7" x2="103.6" y2="63.1" xlink:href="#Degradado_sin_nombre_69"/><linearGradient id="Degradado_sin_nombre_69-7" x1="16.45" y1="160.61" x2="147.94" y2="29.12" xlink:href="#Degradado_sin_nombre_69"/></defs><title>icon</title><path class="cls-1" d="M34.21,60.65H14.69a3,3,0,0,0-3,3V82.33a3,3,0,0,0,3,3H34.21a3,3,0,0,0,3-3V63.65A3,3,0,0,0,34.21,60.65Zm-3,18.68H17.69V66.65H31.21Z"/><path class="cls-2" d="M34.21,91.86H14.69a3,3,0,0,0-3,3v18.68a3,3,0,0,0,3,3H34.21a3,3,0,0,0,3-3V94.86A3,3,0,0,0,34.21,91.86Zm-3,18.68H17.69V97.86H31.21Z"/><path class="cls-3" d="M149.69,60.65H130.17a3,3,0,0,0-3,3V82.33a3,3,0,0,0,3,3h19.52a3,3,0,0,0,3-3V63.65A3,3,0,0,0,149.69,60.65Zm-3,18.68H133.17V66.65h13.52Z"/><path class="cls-4" d="M149.69,91.86H130.17a3,3,0,0,0-3,3v18.68a3,3,0,0,0,3,3h19.52a3,3,0,0,0,3-3V94.86A3,3,0,0,0,149.69,91.86Zm-3,18.68H133.17V97.86h13.52Z"/><path class="cls-5" d="M107,23.58H60.57a3,3,0,0,0-3,3V50.85a3,3,0,0,0,3,3H107a3,3,0,0,0,3-3V26.58A3,3,0,0,0,107,23.58Zm-43.45,6H80.79V47.31a3.19,3.19,0,0,0,.06.54H63.57ZM104,47.85H86.74a3.19,3.19,0,0,0,.05-.54V29.58H104Z"/><path class="cls-6" d="M107,67.76H60.57a3,3,0,0,0-3,3V95a3,3,0,0,0,3,3H107a3,3,0,0,0,3-3V70.76A3,3,0,0,0,107,67.76Zm-43.45,6H80.79V91.49a3.08,3.08,0,0,0,.06.54H63.57ZM104,92H86.74a3.1,3.1,0,0,0,.05-.54V73.76H104Z"/><path class="cls-7" d="M154.9,40H125a9.46,9.46,0,0,0-3.33.61V9.48A9.49,9.49,0,0,0,112.16,0H52.23a9.5,9.5,0,0,0-9.49,9.48V40.61A9.41,9.41,0,0,0,39.42,40H9.48A9.5,9.5,0,0,0,0,49.49v90.75a9.49,9.49,0,0,0,9.48,9.48H154.9a9.49,9.49,0,0,0,9.48-9.48V49.49A9.5,9.5,0,0,0,154.9,40ZM39.42,143.56H9.48a3.32,3.32,0,0,1-3.32-3.32V49.49a3.33,3.33,0,0,1,3.32-3.33H39.42a3.33,3.33,0,0,1,3.32,3.31v90.77h0A3.32,3.32,0,0,1,39.42,143.56Zm53.51,0H74.66V117.37H92.93Zm19.23,0H98.93V114.37a3,3,0,0,0-3-3H71.66a3,3,0,0,0-3,3v29.19H52.23a3.33,3.33,0,0,1-3.33-3.32V9.48a3.33,3.33,0,0,1,3.33-3.32h59.93a3.32,3.32,0,0,1,3.32,3.32V140.24A3.32,3.32,0,0,1,112.16,143.56Zm46.06-3.32a3.32,3.32,0,0,1-3.32,3.32H125a3.33,3.33,0,0,1-3.33-3.32V49.49A3.33,3.33,0,0,1,125,46.16H154.9a3.33,3.33,0,0,1,3.32,3.33Z"/></svg>