<svg id="Capa_1" data-name="Capa 1" xmlns="http://www.w3.org/2000/svg" xmlns:xlink="http://www.w3.org/1999/xlink" viewBox="0 0 118.9 149.72"><defs><style>.cls-1{fill:url(#Degradado_sin_nombre_69);}.cls-2{fill:url(#Degradado_sin_nombre_69-2);}.cls-3{fill:url(#Degradado_sin_nombre_69-3);}.cls-4{fill:url(#Degradado_sin_nombre_69-4);}.cls-5{fill:url(#Degradado_sin_nombre_69-5);}</style><linearGradient id="Degradado_sin_nombre_69" x1="-4.92" y1="139.24" x2="123.83" y2="10.49" gradientUnits="userSpaceOnUse"><stop offset="0" stop-color="#7fba28"/><stop offset="0.55" stop-color="#009f89"/><stop offset="0.63" stop-color="#00a090"/><stop offset="0.75" stop-color="#00a2a2"/><stop offset="0.88" stop-color="#00a6c1"/><stop offset="1" stop-color="#00aae3"/></linearGradient><linearGradient id="Degradado_sin_nombre_69-2" x1="66.52" y1="135.81" x2="89.44" y2="112.88" xlink:href="#Degradado_sin_nombre_69"/><linearGradient id="Degradado_sin_nombre_69-3" x1="45.38" y1="124.93" x2="82.4" y2="87.91" xlink:href="#Degradado_sin_nombre_69"/><linearGradient id="Degradado_sin_nombre_69-4" x1="45.38" y1="106.99" x2="82.4" y2="69.97" xlink:href="#Degradado_sin_nombre_69"/><linearGradient id="Degradado_sin_nombre_69-5" x1="42.58" y1="62.93" x2="76.32" y2="29.19" xlink:href="#Degradado_sin_nombre_69"/></defs><title>icon</title><path class="cls-1" d="M109.42,0H9.48A9.5,9.5,0,0,0,0,9.48V140.24a9.49,9.49,0,0,0,9.48,9.48h99.94a9.49,9.49,0,0,0,9.48-9.48V9.48A9.49,9.49,0,0,0,109.42,0Zm3.32,140.24a3.32,3.32,0,0,1-3.32,3.32H9.48a3.32,3.32,0,0,1-3.32-3.32V9.48A3.32,3.32,0,0,1,9.48,6.16h99.94a3.32,3.32,0,0,1,3.32,3.32Z"/><path class="cls-2" d="M95.75,120.7H60.21a3.65,3.65,0,0,0,0,7.3H95.75a3.65,3.65,0,1,0,0-7.3Z"/><path class="cls-3" d="M95.75,102.77H32a3.65,3.65,0,1,0,0,7.29H95.75a3.65,3.65,0,1,0,0-7.29Z"/><path class="cls-4" d="M95.75,84.83H32a3.65,3.65,0,0,0,0,7.3H95.75a3.65,3.65,0,1,0,0-7.3Z"/><path class="cls-5" d="M59.45,69.91A23.86,23.86,0,1,0,35.59,46.06,23.85,23.85,0,0,0,59.45,69.91ZM61.24,60a3,3,0,0,1-2,.77A3.06,3.06,0,0,1,57.15,60a2.71,2.71,0,0,1-.89-2.15,2.77,2.77,0,0,1,.86-2.06,2.87,2.87,0,0,1,2.1-.83,2.84,2.84,0,0,1,2.89,2.89A2.72,2.72,0,0,1,61.24,60ZM50.92,35.73a9.1,9.1,0,0,1,3.46-3.13,10.87,10.87,0,0,1,5.3-1.25,11.4,11.4,0,0,1,5,1A8.15,8.15,0,0,1,68,35.22a6.93,6.93,0,0,1,1.17,3.88,6,6,0,0,1-.67,2.9,8.46,8.46,0,0,1-1.59,2.14c-.61.61-1.72,1.62-3.31,3-.44.41-.79.76-1.06,1.06a4.36,4.36,0,0,0-.59.84,3.75,3.75,0,0,0-.3.76c-.08.25-.18.69-.32,1.33a2.17,2.17,0,0,1-2.32,2,2.37,2.37,0,0,1-1.7-.66,2.61,2.61,0,0,1-.69-2,6.93,6.93,0,0,1,1.85-4.92c.56-.6,1.31-1.32,2.25-2.15s1.43-1.27,1.8-1.64a5.53,5.53,0,0,0,.93-1.23,2.91,2.91,0,0,0,.38-1.48,3.43,3.43,0,0,0-1.15-2.62,4.25,4.25,0,0,0-3-1.07,4.11,4.11,0,0,0-3.14,1.08,8.43,8.43,0,0,0-1.71,3.18c-.44,1.46-1.28,2.19-2.51,2.19a2.45,2.45,0,0,1-1.83-.77,2.33,2.33,0,0,1-.75-1.66A7,7,0,0,1,50.92,35.73Z"/></svg>