<svg id="Capa_1" data-name="Capa 1" xmlns="http://www.w3.org/2000/svg" xmlns:xlink="http://www.w3.org/1999/xlink" viewBox="0 0 110.4 130.63"><defs><style>.cls-1{fill:url(#Degradado_sin_nombre_69);}</style><linearGradient id="Degradado_sin_nombre_69" x1="10.45" y1="132.08" x2="112.19" y2="30.35" gradientUnits="userSpaceOnUse"><stop offset="0" stop-color="#7fba28"/><stop offset="0.55" stop-color="#009f89"/><stop offset="0.63" stop-color="#00a090"/><stop offset="0.75" stop-color="#00a2a2"/><stop offset="0.88" stop-color="#00a6c1"/><stop offset="1" stop-color="#00aae3"/></linearGradient></defs><title>icon</title><path class="cls-1" d="M110.26,80.59c-1.77-19.29-14.81-33.68-31.68-35.7L89,29.66a3,3,0,0,0-.78-4.18l-5.49-3.77.51-.76,2.8,1.92a3,3,0,0,0,1.7.53,3.51,3.51,0,0,0,.55,0,3,3,0,0,0,1.92-1.25L94.41,16a3,3,0,0,0-.77-4.17L77.12.53A3,3,0,0,0,73,1.3L68.79,7.36a3,3,0,0,0,.78,4.17l2.79,1.92-.52.76-5.5-3.78a3,3,0,0,0-4.17.77L28.39,60.4l-2.23-1.52a3,3,0,0,0-4.17.77L18.32,65a3,3,0,0,0,.77,4.17l31.32,21.5a3,3,0,0,0,4.17-.77l3.67-5.35a3,3,0,0,0,.48-2.24,3.05,3.05,0,0,0-1.25-1.93l-2.23-1.53L64,66.06a1.58,1.58,0,0,0,.37,0,15.5,15.5,0,0,1,12.18,3.18,19.53,19.53,0,0,1,7.79,13.1c.73,7.36-4.73,17.35-12.89,19.45H38.92V100H44.7a3,3,0,0,0,0-6H19.39a3,3,0,0,0,0,6h5.78v1.75H15a3,3,0,0,0-2.38,1.18l-12,15.64-.05.07-.17.28-.13.23c0,.09-.07.19-.1.28l-.09.28A2.51,2.51,0,0,0,0,120c0,.11,0,.21,0,.32s0,.06,0,.09a1.1,1.1,0,0,0,0,.18,1.73,1.73,0,0,0,0,.32l.06.28.09.28.12.26c0,.09.09.17.14.26l.17.24c.06.07.11.15.18.22a2.39,2.39,0,0,0,.23.22l.14.12.08,0,.18.12.3.16.19.08a2,2,0,0,0,.35.11l.17,0a2.51,2.51,0,0,0,.55.06H8.42v4.23a3,3,0,0,0,3,3H78.35a3,3,0,0,0,3-3v-4.28a2.09,2.09,0,0,0,.35,0C100.69,118.59,111.8,97.41,110.26,80.59ZM76.2,7.17l11.57,7.94L87,16.23l-2.79-1.92h0l-3-2.06-5.78-4Zm1.11,9.68.51.35.52.36-.52.75L77.3,18l-.51-.36ZM51.33,84,25,65.92l.28-.4,2.22,1.53h0l11,7.53,13.19,9Zm-9.51-14.4L33.33,63.8,65.42,17.07l8.49,5.83,3,2.06h0l5.5,3.77L50.31,75.46ZM31.17,100h1.75v1.75H31.17Zm44.18,24.62H14.42V123.4H75.35Zm5.24-7.23H9.07l7.37-9.64H71.85a3.14,3.14,0,0,0,.68-.07c11.74-2.71,18.82-15.86,17.82-26-.63-6.45-4.53-13.08-10.16-17.31a22.28,22.28,0,0,0-11.88-4.56l6.32-9.21c15.83.08,28,12.6,29.65,30.49C105.89,98.74,93.39,114,80.59,117.4Z"/></svg>