<svg id="Capa_1" data-name="Capa 1" xmlns="http://www.w3.org/2000/svg" xmlns:xlink="http://www.w3.org/1999/xlink" viewBox="0 0 125.2 125.2"><defs><style>.cls-1{fill:url(#Degradado_sin_nombre_69);}.cls-2{fill:url(#Degradado_sin_nombre_69-2);}</style><linearGradient id="Degradado_sin_nombre_69" x1="34.58" y1="101.48" x2="101.38" y2="34.67" gradientUnits="userSpaceOnUse"><stop offset="0" stop-color="#7fba28"/><stop offset="0.55" stop-color="#009f89"/><stop offset="0.63" stop-color="#00a090"/><stop offset="0.75" stop-color="#00a2a2"/><stop offset="0.88" stop-color="#00a6c1"/><stop offset="1" stop-color="#00aae3"/></linearGradient><linearGradient id="Degradado_sin_nombre_69-2" x1="21.1" y1="73.5" x2="73.5" y2="21.1" xlink:href="#Degradado_sin_nombre_69"/></defs><title>icon</title><path class="cls-1" d="M122.2,107.6,94.1,79.5a5,5,0,0,0-3.5-1.4,4.84,4.84,0,0,0-2.92,1L85,76.4c-.11-.12-.24-.21-.36-.32a47.32,47.32,0,0,0-4-62.18A46.26,46.26,0,0,0,47.3,0,47.31,47.31,0,0,0,13.8,80.7a47.32,47.32,0,0,0,62.31,3.94c.1.12.18.25.29.36L79,87.6a4.94,4.94,0,0,0,.5,6.5l28.1,28.1a10.28,10.28,0,0,0,7.3,3,10.3,10.3,0,0,0,7.3-17.6ZM82.54,84,79.9,81.4a6,6,0,0,0,.8-.8l.8-.8,2.66,2.66ZM17.4,77.2A42.28,42.28,0,1,1,77.2,17.4,42.23,42.23,0,0,1,78.34,76a4.18,4.18,0,0,0-.44.4l-.7.7-.7.7a4.83,4.83,0,0,0-.37.42,42.23,42.23,0,0,1-58.73-1Zm101.3,41.5a5.46,5.46,0,0,1-3.8,1.6,5.22,5.22,0,0,1-3.8-1.6L83,90.6l2.17-2.14a4.24,4.24,0,0,0,.93-.76l1.6-1.6a5.33,5.33,0,0,0,.61-.74L90.6,83.1l28.1,28.1A5.25,5.25,0,0,1,118.7,118.7Z"/><path class="cls-2" d="M84.4,47.3A37.05,37.05,0,0,0,21.1,21.1,37.05,37.05,0,1,0,73.5,73.5,36.85,36.85,0,0,0,84.4,47.3ZM47.3,79.4A32.09,32.09,0,0,1,15.2,47.3,32.09,32.09,0,0,1,47.3,15.2,32,32,0,0,1,69.9,70,31.94,31.94,0,0,1,47.3,79.4Z"/></svg>