<svg id="Capa_1" data-name="Capa 1" xmlns="http://www.w3.org/2000/svg" xmlns:xlink="http://www.w3.org/1999/xlink" viewBox="0 0 118.9 149.72"><defs><style>.cls-1{fill:url(#Degradado_sin_nombre_69);}.cls-2{fill:url(#Degradado_sin_nombre_69-2);}</style><linearGradient id="Degradado_sin_nombre_69" x1="-4.92" y1="139.24" x2="123.83" y2="10.49" gradientUnits="userSpaceOnUse"><stop offset="0" stop-color="#7fba28"/><stop offset="0.55" stop-color="#009f89"/><stop offset="0.63" stop-color="#00a090"/><stop offset="0.75" stop-color="#00a2a2"/><stop offset="0.88" stop-color="#00a6c1"/><stop offset="1" stop-color="#00aae3"/></linearGradient><linearGradient id="Degradado_sin_nombre_69-2" x1="54.71" y1="139.84" x2="64.19" y2="130.36" xlink:href="#Degradado_sin_nombre_69"/></defs><title>icon</title><path class="cls-1" d="M109.42,0H9.48A9.5,9.5,0,0,0,0,9.48V140.24a9.49,9.49,0,0,0,9.48,9.48h99.94a9.49,9.49,0,0,0,9.48-9.48V9.48A9.49,9.49,0,0,0,109.42,0ZM9.48,6.16h99.94a3.32,3.32,0,0,1,3.32,3.32v112H101.37v-18A38.25,38.25,0,0,0,75.52,67.4a30.46,30.46,0,1,0-32.13,0,38.25,38.25,0,0,0-25.86,36.1v18H6.16V9.48A3.32,3.32,0,0,1,9.48,6.16Zm50,58.8A23.41,23.41,0,1,1,82.86,41.55,23.43,23.43,0,0,1,59.45,65Zm12.3,8.4a12.42,12.42,0,0,1-24.83,0v0a31.61,31.61,0,0,1,8.61-1.19h7.61A31.67,31.67,0,0,1,71.75,73.36ZM56.13,91.89v14a10.32,10.32,0,0,0,20.64,0V103a6.51,6.51,0,1,0-6.41,0v2.86a3.91,3.91,0,0,1-7.82,0v-14a18.74,18.74,0,0,0,10.76-6A18.53,18.53,0,0,0,78,75.86a31.78,31.78,0,0,1,16.86,27.93v17.7h-71v-17.7A31.82,31.82,0,0,1,40.7,75.85a18.89,18.89,0,0,0,15.43,16Zm53.29,51.67H9.48a3.32,3.32,0,0,1-3.32-3.32V127.49H112.74v12.75A3.32,3.32,0,0,1,109.42,143.56Z"/><path class="cls-2" d="M59.52,128.44h-.13a6.66,6.66,0,1,0,0,13.31h.13a6.66,6.66,0,0,0,0-13.31Z"/></svg>