<svg id="Capa_1" data-name="Capa 1" xmlns="http://www.w3.org/2000/svg" xmlns:xlink="http://www.w3.org/1999/xlink" viewBox="0 0 147.44 139.23"><defs><style>.cls-1{fill:url(#Degradado_sin_nombre_69);}.cls-2{fill:url(#Degradado_sin_nombre_69-2);}.cls-3{fill:url(#Degradado_sin_nombre_69-3);}.cls-4{fill:url(#Degradado_sin_nombre_69-4);}.cls-5{fill:url(#Degradado_sin_nombre_69-5);}.cls-6{fill:url(#Degradado_sin_nombre_69-6);}.cls-7{fill:url(#Degradado_sin_nombre_69-7);}</style><linearGradient id="Degradado_sin_nombre_69" x1="35.78" y1="164.85" x2="111.66" y2="88.97" gradientUnits="userSpaceOnUse"><stop offset="0" stop-color="#7fba28"/><stop offset="0.55" stop-color="#009f89"/><stop offset="0.63" stop-color="#00a090"/><stop offset="0.75" stop-color="#00a2a2"/><stop offset="0.88" stop-color="#00a6c1"/><stop offset="1" stop-color="#00aae3"/></linearGradient><linearGradient id="Degradado_sin_nombre_69-2" x1="35.59" y1="131.12" x2="111.85" y2="54.87" xlink:href="#Degradado_sin_nombre_69"/><linearGradient id="Degradado_sin_nombre_69-3" x1="66.52" y1="20.35" x2="80.92" y2="5.95" xlink:href="#Degradado_sin_nombre_69"/><linearGradient id="Degradado_sin_nombre_69-4" x1="32.71" y1="25.68" x2="39.28" y2="19.11" xlink:href="#Degradado_sin_nombre_69"/><linearGradient id="Degradado_sin_nombre_69-5" x1="7.52" y1="54.4" x2="17.2" y2="44.72" xlink:href="#Degradado_sin_nombre_69"/><linearGradient id="Degradado_sin_nombre_69-6" x1="102.24" y1="31.6" x2="120.65" y2="13.19" xlink:href="#Degradado_sin_nombre_69"/><linearGradient id="Degradado_sin_nombre_69-7" x1="126.31" y1="58.33" x2="143.84" y2="40.8" xlink:href="#Degradado_sin_nombre_69"/></defs><title>icon</title><path class="cls-1" d="M134.14,139.23H13.3a7.61,7.61,0,0,1-7.61-7.61v-9.41a7.61,7.61,0,0,1,7.61-7.61H134.14a7.61,7.61,0,0,1,7.61,7.61v9.41A7.61,7.61,0,0,1,134.14,139.23ZM13.3,120.6a1.61,1.61,0,0,0-1.61,1.61v9.41a1.61,1.61,0,0,0,1.61,1.61H134.14a1.61,1.61,0,0,0,1.61-1.61v-9.41a1.61,1.61,0,0,0-1.61-1.61Z"/><path class="cls-2" d="M122.37,120.6H25.07V85.5A48.7,48.7,0,0,1,73.72,36.86h0A48.7,48.7,0,0,1,122.37,85.5Zm-91.3-6h85.3V85.5a42.65,42.65,0,0,0-85.3,0Z"/><path class="cls-3" d="M73.72,26.3a3,3,0,0,1-3-3V3a3,3,0,0,1,6,0V23.3A3,3,0,0,1,73.72,26.3Z"/><path class="cls-4" d="M41.92,33.64a3,3,0,0,1-2.44-1.25L27.64,15.9a3,3,0,1,1,4.87-3.5L44.35,28.89a3,3,0,0,1-2.43,4.75Z"/><path class="cls-5" d="M21.72,56.49a3,3,0,0,1-1.16-.23L1.84,48.4a3,3,0,1,1,2.32-5.53l18.72,7.85a3,3,0,0,1-1.16,5.77Z"/><path class="cls-6" d="M105.52,33.64a3,3,0,0,1-2.43-4.75L114.93,12.4a3,3,0,1,1,4.87,3.5L108,32.39A3,3,0,0,1,105.52,33.64Z"/><path class="cls-7" d="M125.72,56.49a3,3,0,0,1-1.16-5.77l18.72-7.85a3,3,0,1,1,2.32,5.53l-18.72,7.86A3,3,0,0,1,125.72,56.49Z"/></svg>