<svg id="Capa_1" data-name="Capa 1" xmlns="http://www.w3.org/2000/svg" xmlns:xlink="http://www.w3.org/1999/xlink" viewBox="0 0 152.9 115.59"><defs><style>.cls-1{fill:url(#Degradado_sin_nombre_69);}</style><linearGradient id="Degradado_sin_nombre_69" x1="14.11" y1="116.08" x2="134.61" y2="-4.41" gradientUnits="userSpaceOnUse"><stop offset="0" stop-color="#7fba28"/><stop offset="0.55" stop-color="#009f89"/><stop offset="0.63" stop-color="#00a090"/><stop offset="0.75" stop-color="#00a2a2"/><stop offset="0.88" stop-color="#00a6c1"/><stop offset="1" stop-color="#00aae3"/></linearGradient></defs><title>icon</title><path class="cls-1" d="M144.9,73.92V11.29a11.27,11.27,0,0,0-1.69-5.92,3.49,3.49,0,0,0-1-2.2,3.55,3.55,0,0,0-1.92-1A11.24,11.24,0,0,0,133.61,0H11.29A11.24,11.24,0,0,0,4.63,2.19a3.55,3.55,0,0,0-1.92,1,3.49,3.49,0,0,0-1,2.2A11.27,11.27,0,0,0,0,11.29v86a11.29,11.29,0,0,0,11.29,11.28H112.16A23.85,23.85,0,1,0,144.9,73.92ZM133.61,6a5.69,5.69,0,0,1,.71.07L72.45,68.26,10.58,6.07A5.51,5.51,0,0,1,11.29,6ZM11.29,102.59A5.29,5.29,0,0,1,6,97.31V11.5L69.94,75.77a3.55,3.55,0,0,0,5,0L138.9,11.5V70a23.86,23.86,0,0,0-31.1,32.58ZM140.52,94.9a3,3,0,0,1-1.51,5.6,2.92,2.92,0,0,1-1.49-.41L132,96.93v6.33a3,3,0,0,1-6,0V96.93l-5.47,3.16a2.92,2.92,0,0,1-1.5.41,3,3,0,0,1-1.5-5.6L123,91.74l-5.47-3.16a3,3,0,0,1,3-5.2L126,86.54V80.22a3,3,0,1,1,6,0v6.32l5.48-3.16a3,3,0,0,1,3,5.2L135,91.74Z"/></svg>